<svg height='300px' width='300px'  fill="#000000" xmlns="http://www.w3.org/2000/svg" xmlns:xlink="http://www.w3.org/1999/xlink" version="1.1" x="0px" y="0px" viewBox="0 0 90 90" enable-background="new 0 0 90 90" xml:space="preserve"><path fill="#000000" d="M47.865,28.802c-0.267,0-0.534-0.091-0.753-0.278l-7.218-6.154l-6.625,5.462  c-0.25,0.206-0.573,0.298-0.895,0.254c-0.321-0.043-0.609-0.219-0.794-0.484l-3.683-5.248l-5.537,2.594  c-0.451,0.213-0.986,0.111-1.331-0.248c-0.345-0.359-0.422-0.898-0.192-1.34C27.536,10.488,36.343,3.105,45,3.105  c9.414,0,19.053,8.812,25.783,23.572c0.217,0.475,0.09,1.036-0.31,1.371c-0.399,0.335-0.974,0.364-1.403,0.069l-5.529-3.79  l-5.184,4.167c-0.254,0.205-0.584,0.291-0.907,0.242c-0.323-0.05-0.61-0.235-0.79-0.508l-3.345-5.071l-4.573,5.247  C48.513,28.667,48.189,28.802,47.865,28.802z M39.907,19.693c0.269,0,0.537,0.093,0.753,0.278l7.085,6.041l4.822-5.532  c0.238-0.273,0.58-0.414,0.954-0.396c0.361,0.024,0.691,0.217,0.892,0.52l3.482,5.281l4.861-3.907  c0.4-0.321,0.962-0.343,1.384-0.053l2.581,1.769C60.586,12.176,52.643,5.428,45,5.428c-7.069,0-14.382,5.746-20.379,15.895  l3.173-1.486c0.51-0.238,1.12-0.078,1.443,0.385l3.522,5.019l6.408-5.283C39.383,19.781,39.645,19.693,39.907,19.693z"></path><path fill="#000000" d="M45,86.895c-17.507,0-31.75-14.243-31.75-31.751c0-7.185,2.405-16.541,6.433-25.027  c0.116-0.244,0.312-0.439,0.557-0.554l7.023-3.29c0.509-0.239,1.119-0.077,1.443,0.384l3.743,5.332l6.703-5.526  c0.433-0.359,1.063-0.354,1.493,0.012l7.267,6.196l4.483-5.144c0.238-0.273,0.582-0.412,0.954-0.396  c0.362,0.024,0.692,0.217,0.892,0.52l3.292,4.995l5.301-4.26c0.399-0.321,0.962-0.342,1.384-0.053l7.342,5.03  c0.188,0.128,0.334,0.309,0.419,0.52c3.034,7.441,4.773,15.19,4.773,21.261C76.75,72.651,62.507,86.895,45,86.895z M21.604,31.488  c-3.781,8.089-6.031,16.903-6.031,23.655c0,16.227,13.201,29.429,29.427,29.429c16.227,0,29.428-13.202,29.428-29.429  c0-5.694-1.628-12.989-4.472-20.062l-6.342-4.345l-5.623,4.519c-0.255,0.205-0.585,0.292-0.907,0.242  c-0.323-0.051-0.61-0.235-0.79-0.508l-3.153-4.784l-4.234,4.857c-0.419,0.479-1.146,0.533-1.63,0.121l-7.399-6.309l-6.919,5.705  c-0.25,0.206-0.576,0.297-0.895,0.255c-0.321-0.043-0.609-0.219-0.795-0.483l-3.904-5.561L21.604,31.488z"></path><ellipse cx="25.55" cy="56.296" rx="3.683" ry="7.26"></ellipse><ellipse cx="61.757" cy="71.978" rx="4.066" ry="4.355"></ellipse><circle cx="59.725" cy="63.263" r="2.033"></circle><ellipse transform="matrix(0.8746 0.4848 -0.4848 0.8746 42.1497 -4.5781)" cx="29.926" cy="79.205" rx="7.05" ry="2.936"></ellipse><ellipse transform="matrix(0.8374 0.5467 -0.5467 0.8374 14.1875 -28.3537)" cx="54.744" cy="9.666" rx="5.927" ry="2.468"></ellipse><ellipse transform="matrix(-0.8374 0.5466 -0.5466 -0.8374 67.5734 1.0313)" cx="33.633" cy="10.567" rx="4.037" ry="1.681"></ellipse><ellipse transform="matrix(0.9644 -0.2646 0.2646 0.9644 -9.4392 18.1305)" cx="62.573" cy="44.099" rx="4.652" ry="7.259"></ellipse></svg>